<svg width="101" height="57" xmlns="http://www.w3.org/2000/svg">
 <defs>
  <style type="text/css">
   <![CDATA[
    .fil0 {fill:white;fill-rule:nonzero}
    .fil1 {fill:white;fill-rule:nonzero}
   ]]>
  </style>
 </defs>
 <g>
  <title>background</title>
  <rect fill="none" id="canvas_background" height="59" width="103" y="-1" x="-1"/>
 </g>
 <g>
  <title>Layer 1</title>
  <g id="图层_x0020_1">
   <metadata transform="translate(0,-1) translate(0,-0.022725462913513184) translate(1.0000001192092896,0) translate(-1.1920928955078125e-7,0) translate(1.1920928955078125e-7,0) translate(-3.5762786865234375e-7,0) translate(-0.20454704761505127,0) translate(-0.909089207649231,1.0227253437042236) translate(0.4545446038246155,0.11363615095615387) translate(-0.3409084677696228,-0.11363615095615387) translate(0,5) translate(7,0) translate(0,-0.000009059906005859375) translate(-0.4615497589111328,0) translate(-6.538449764251709,-4.999990940093994) translate(-36,0) translate(0,-80) translate(0,-0.084991455078125) translate(3,0) translate(3,0) translate(3,0) translate(9,0) translate(6,0) translate(3,0) translate(3.000000476837158,0) translate(2.999999523162842,0) translate(2.999999761581421,0) translate(2.999999761581421,0) translate(6,0) translate(6,0) translate(3,0) translate(3,0) translate(3,0) translate(6,0) translate(3,0) translate(-3,0) translate(-3,0) translate(-3,0) translate(-6,0) translate(-6,0) translate(-9,0) translate(-14,0) translate(-13.999998092651367,0) translate(-11,0) translate(-11,0) translate(-6,0) translate(-17,0) translate(-9,0) translate(-14,0) translate(-17,0) translate(-14,0) translate(-23,0) translate(-23,0) translate(-31,0) translate(-51,0) translate(-51,0) translate(-3,0) translate(3,0) translate(9,0) translate(14,0) translate(14,0) translate(23,0) translate(29,0) translate(14,0) translate(11,0) translate(11,0) translate(11,0) translate(11,0) translate(11,0) translate(14,0) translate(26,0) translate(46,0) translate(9,0) translate(-6,0) translate(-3,0) translate(6,0) translate(0.4998817443847656,0) " id="CorelCorpID_0Corel-Layer"/>
   <path id="svg_1" d="m89.909883,31.531008c-0.9578,0.3414 -3.4856,0.8662 -2.7517,2.413c0.1538,-0.0273 0.1281,-0.0171 0.2117,-0.0847c0.2136,-0.0989 2.9841,-2.2041 3.0056,-2.2859c-0.1552,-0.0141 -0.3105,-0.0282 -0.4656,-0.0424zm0.4656,-0.5503c1.2627,-0.0407 1.714,0.5205 1.905,1.397c-0.458,0.7507 -1.5172,0.522 -2.3706,0.889c-0.5668,0.2437 -1.2269,0.8662 -1.524,1.397c0.0141,0.0564 0.0282,0.1129 0.0423,0.1693c0.0141,0 0.0282,0 0.0423,0c0.3528,-0.1834 0.7056,-0.3669 1.0584,-0.5503c1.2562,-0.2911 2.3755,1.0262 1.8203,1.9473c-1.2495,-0.035 -3.0222,0.8119 -3.3867,1.5663c0.0412,0.4065 0.1863,0.8749 0.381,1.143c1.4204,-0.0578 2.0392,-1.1023 3.556,-0.3387c1.0499,-0.6908 2.408,-5.2054 3.683,-5.3763c0.2732,0.3608 0.6476,0.5804 0.7197,1.143c-0.4697,0.6052 -1.781,2.3214 -1.6934,3.175c0.4173,0.1088 0.6227,0.2089 0.9314,0.381c-0.0342,0.1695 -0.0856,0.668 -0.1694,0.8043c-0.1693,0.127 -0.3386,0.254 -0.508,0.381c-0.2671,0.3544 -1.0264,3.1755 -0.6773,3.6406c0.4938,-0.4797 0.9878,-0.9596 1.4817,-1.4393c0.3809,-0.2821 0.762,-0.5644 1.143,-0.8466c-0.0029,-1.3224 -0.0584,-5.7663 0.381,-6.6463c0.0564,0 0.1128,0 0.1693,0c0.9278,0.9863 0.5242,3.3013 0.508,5.0799c0.3098,0.142 0.3171,0.3985 0.7197,0.4657c0.2299,-0.1487 0.4302,-0.2672 0.762,-0.2117c0.0423,0.0283 0.0846,0.0565 0.127,0.0847c-0.0455,0.2542 -0.1372,0.349 -0.0424,0.508c0.0988,0.127 0.1976,0.254 0.2964,0.381c-0.4982,0.8863 -3.0581,1.1406 -1.8204,3.1326c0.7291,0.2105 1.0113,0.565 1.6934,0.6773c0,0.0141 0,0.0282 0,0.0423c-0.404,1.1891 -2.1473,1.3514 -1.6934,3.1326c0.1129,-0.0141 0.2258,-0.0282 0.3387,-0.0423c0.3219,-0.1855 0.7217,-0.7473 1.3123,-0.508c0.0565,0.0282 0.1129,0.0565 0.1694,0.0847c0.0105,0.2939 -0.0158,0.8567 -0.1694,1.016c-0.8791,0.718 -2.0809,0.7897 -1.905,2.4553c0.0328,0.3109 0.2407,0.5048 0.254,1.016c0.0282,0.0141 0.0565,0.0282 0.0847,0.0423c0.6502,0.0621 1.7201,-0.6272 2.2013,0.0847c0.7674,1.1156 -1.2826,1.2667 -1.905,1.524c-0.5781,0.2389 -1.0169,0.6923 -1.8203,0.7196c0.0282,-0.0423 0.0564,-0.0847 0.0847,-0.127c0.2116,-0.0705 0.4233,-0.1411 0.635,-0.2116c0,-0.0565 0,-0.113 0,-0.1694c-0.5362,0.1976 -1.0726,0.3951 -1.6087,0.5927c0.2479,-0.5748 1.5527,-0.5649 1.9473,-1.0583c-0.0141,-0.0424 -0.0282,-0.0847 -0.0423,-0.127c-0.0706,0 -0.1411,0 -0.2117,0c-0.6964,0.2558 -1.6031,-0.0266 -2.3283,0.1693c-0.3002,0.0811 -0.5432,0.5113 -1.0583,0.381c-0.2614,-0.0661 -0.2355,-0.2199 -0.5504,-0.2117c0,0.0283 0,0.0565 0,0.0847c-0.4273,1.1466 0.5872,3.4164 -0.8043,3.556c-1.6068,-0.8569 0.2107,-6.0117 -0.8467,-7.366c-0.4373,0.0565 -0.8749,0.1129 -1.3123,0.1694c-0.1298,1.148 0.2661,1.5597 0.7197,2.2013c0.0014,0.5118 -0.4786,1.0364 -1.0583,0.762c-0.4374,-0.4798 -0.875,-0.9596 -1.3124,-1.4394c-1.4472,-0.8564 -2.6138,1.9419 -3.5983,2.286c0.0141,-0.0423 0.0282,-0.0847 0.0423,-0.127c1.149,-0.5227 1.4409,-1.9335 2.7517,-2.413c0,-0.0282 0,-0.0564 0,-0.0846c-0.0141,-0.0283 -0.0282,-0.0565 -0.0423,-0.0847c-0.7795,0.0268 -0.9801,0.659 -1.4817,0.9737c0.1552,-0.1976 0.3104,-0.3951 0.4657,-0.5927c-0.0283,-0.0423 -0.0565,-0.0847 -0.0847,-0.127c-1.0521,-0.0576 -2.6678,0.3134 -3.302,0.9737c-0.0219,0.847 -0.0007,1.5763 0.2963,2.0743c0.1129,0 0.2258,0 0.3387,0c0.3527,-0.3387 0.7056,-0.6774 1.0583,-1.016c0,0.0141 0,0.0282 0,0.0423c-0.141,0.1411 -0.2822,0.2823 -0.4233,0.4233c0.04,0.2503 0.0844,0.113 0.0423,0.2541c-0.1552,0.1552 -0.3104,0.3104 -0.4656,0.4656c0.1082,0.373 0.2539,0.9706 0.1693,1.3123c-0.0987,0.0141 -0.1976,0.0283 -0.2963,0.0424c0.0271,0.2989 0.0342,0.358 -0.0847,0.5503c-0.1784,0.0177 -0.2128,0.0824 -0.2117,0.381c-0.0564,0 -0.1129,0 -0.1693,0c-1.1388,-0.9487 -1.1734,-2.2665 -1.5663,-3.8946c-0.0283,-0.0141 -0.0565,-0.0283 -0.0847,-0.0424c-0.6114,0.1057 -0.9452,0.7139 -1.7356,0.4234c-0.1296,-0.3373 -0.5437,-0.4009 -0.508,-0.6774c0.0467,-0.5923 0.8256,-0.9232 1.27,-1.27c1.3415,-1.047 2.8205,-1.8981 4.4873,-2.6246c0,-0.0423 0,-0.0847 0,-0.127c-1.7007,0.0803 -2.9429,1.27 -4.318,2.0743c-0.3877,0.2268 -1.2151,0.6188 -1.5663,0.127c-0.0283,-0.0423 -0.0565,-0.0847 -0.0847,-0.127c0.7065,-1.8746 3.0836,-2.2062 4.2333,-3.7253c-0.3096,-1.4097 -1.4929,-3.377 -0.8043,-5.0798c0.2698,-0.6673 0.8397,-1.101 1.27,-1.6087c-0.0141,-0.0423 -0.0283,-0.0847 -0.0424,-0.127c-0.0141,0 -0.0282,0 -0.0423,0c-0.3809,0.1162 -0.6084,0.0167 -0.889,-0.1693c-0.9145,-2.8406 1.2665,-2.81 2.667,-4.2333c-0.208,-0.951 -1.5194,-0.6757 -1.143,-2.4977c0.4684,-0.182 1.1166,-0.1163 1.651,-0.2963c0.5926,-0.2257 1.1854,-0.4515 1.778,-0.6773c0.7794,-0.2061 1.5601,-0.0858 2.0743,-0.508zm4.0217,18.4994c-0.53,0.292 -1.6696,1.3825 -0.889,2.1166c0.4977,-0.2923 1.6334,-0.6324 1.7356,-1.1853c0.1479,-0.4111 -0.3584,-0.7435 -0.5926,-0.9313c-0.0847,0 -0.1694,0 -0.254,0zm-4.826,-0.1693c-0.587,0.3193 -1.3701,0.4003 -1.905,0.6773c0,0.0423 0,0.0846 0,0.127c0.0141,0.0141 0.0282,0.0282 0.0423,0.0423c0.4617,-0.0122 0.5147,-0.2121 0.8044,-0.2963c0.5619,-0.1633 0.7697,0.2498 1.1006,0.127c0.0283,-0.2117 0.0565,-0.4234 0.0847,-0.635c-0.0423,-0.0141 -0.0847,-0.0282 -0.127,-0.0423zm-3.7253,-0.5504c-0.3073,0.2397 -0.6957,0.3643 -0.9314,0.6774c0,0.0423 0,0.0846 0,0.127c0.1835,0 0.367,0 0.5504,0c0.0846,-0.0283 0.1693,-0.0565 0.254,-0.0847c0.1129,-0.1693 0.2257,-0.3387 0.3386,-0.508c-0.0141,-0.0706 -0.0282,-0.1411 -0.0423,-0.2117c-0.0564,0 -0.1129,0 -0.1693,0zm10.5409,-0.254c-0.4593,0.252 -0.8724,0.2888 -1.1853,0.6774c0.1834,0.2116 0.3669,0.4233 0.5503,0.6349c0.3412,-0.0235 0.3584,-0.1446 0.5504,-0.2963c0.1199,-0.3206 0.403,-0.7471 0.0846,-1.016zm-10.6679,-0.2963c-0.7761,0.4797 -1.5523,0.9596 -2.3284,1.4393c0.0141,0.0706 0.0283,0.1411 0.0424,0.2117c0.0141,0 0.0282,0 0.0423,0c0.5627,-0.2847 2.3009,-1.0667 2.4553,-1.6087c-0.0282,0 -0.0564,0 -0.0846,0c-0.0424,-0.0141 -0.0847,-0.0282 -0.127,-0.0423zm3.556,-1.0583c-0.4166,0.2261 -1.045,0.161 -1.4817,0.2963c0.0141,0.3245 0.0282,0.6491 0.0423,0.9737c0.0283,0 0.0565,0 0.0847,0c0.5409,0.2378 1.7451,-0.3087 1.9897,-0.5927c-0.1113,-0.2992 -0.3266,-0.5701 -0.635,-0.6773zm6.9849,-0.5504c-0.523,0.3435 -1.1457,0.7983 -1.27,1.524c0.0282,0.0283 0.0565,0.0565 0.0847,0.0847c0.6017,0.0139 1.0513,-0.1413 1.397,-0.381c0.022,-0.3742 0.1428,-0.9643 -0.0847,-1.1853c-0.0423,-0.0141 -0.0846,-0.0283 -0.127,-0.0424zm-5.5879,-0.2116c-0.0988,0.1129 -0.1976,0.2258 -0.2964,0.3386c0.0141,0.0565 0.0283,0.113 0.0424,0.1694c0.1128,-0.0141 0.2257,-0.0283 0.3386,-0.0424c0.0283,-0.141 0.0565,-0.2822 0.0847,-0.4233c-0.0564,-0.0141 -0.1129,-0.0282 -0.1693,-0.0423zm-0.4657,-0.0847c-0.0423,0.0706 -0.0847,0.1411 -0.127,0.2117c0.0141,0.0423 0.0282,0.0846 0.0423,0.127c0.1885,-0.0577 0.1656,-0.0673 0.254,-0.2117c-0.081,-0.1026 -0.0272,-0.0684 -0.1693,-0.127zm7.112,-0.254c0.0307,0.2703 0.0556,0.2169 0.2116,0.3387c0.0282,-0.0141 0.0565,-0.0283 0.0847,-0.0424c-0.0141,-0.0987 -0.0282,-0.1975 -0.0423,-0.2963c-0.0142,0 -0.0283,0 -0.0424,0c-0.0705,0 -0.1411,0 -0.2116,0zm-5.08,-0.3386c-0.2052,0.4561 -0.7847,0.3188 -1.1853,0.5503c-0.0744,0.3264 -0.262,0.6032 -0.1694,0.9736c0.4668,0.0125 0.9849,0.0582 1.2277,-0.0846c0.1242,-0.4297 0.3308,-1.0078 0.2963,-1.397c-0.0282,-0.0141 -0.0565,-0.0282 -0.0847,-0.0423c-0.0282,0 -0.0564,0 -0.0846,0zm3.8523,-0.1694c-0.9207,0.7383 -1.8584,1.1344 -2.5823,2.0743c0.045,0.2329 0.0998,0.2699 0.254,0.381c0.1975,-0.1693 0.3951,-0.3386 0.5926,-0.508c0.7508,-0.47 1.9316,-0.7679 2.032,-1.8626c-0.0141,-0.0282 -0.0282,-0.0564 -0.0423,-0.0847c-0.0847,0 -0.1693,0 -0.254,0zm0.0847,-0.508c-0.5003,0.3513 -1.4879,0.6543 -1.6934,1.27c0.0141,0.0141 0.0282,0.0282 0.0424,0.0423c0.0564,0 0.1128,0 0.1693,0c0.1847,-0.1857 1.6637,-0.9837 1.7357,-1.2699c-0.0283,0 -0.0565,0 -0.0847,0c-0.0565,-0.0141 -0.1129,-0.0283 -0.1693,-0.0424zm0,-0.635c-0.7481,0.4087 -1.9248,0.9469 -2.3707,1.651c0.0141,0.0282 0.0282,0.0564 0.0423,0.0847c0.5397,-0.0904 2.1071,-1.1835 2.413,-1.5663c-0.0282,-0.0565 -0.0564,-0.1129 -0.0846,-0.1694zm0.2963,-2.1588c-0.4321,0.4002 -0.9981,0.6706 -1.3547,1.1429c-0.1552,0.2539 -0.3104,0.508 -0.4656,0.7619c-0.3158,0.3095 -0.8126,0.5176 -1.016,0.9314c0,0.2116 0,0.4233 0,0.635c0.0141,0 0.0282,0 0.0423,0c0.3951,-0.2823 0.7903,-0.5645 1.1853,-0.8467c0.9234,-0.5801 2.5417,-0.963 1.7357,-2.6245c-0.0423,0 -0.0847,0 -0.127,0zm-10.16,-0.8044c-0.3809,0.1693 -0.762,0.3387 -1.143,0.508c-0.3486,0.0952 -0.8378,-0.0128 -1.0583,0.0847c0.0462,0.7164 0.0765,1.5209 0.4233,2.0319c0.0988,0 0.1976,0 0.2964,0c0.5361,-0.5785 1.0725,-1.1571 1.6086,-1.7356c0,-0.2822 0,-0.5644 0,-0.8466c-0.0423,-0.0141 -0.0846,-0.0282 -0.127,-0.0424zm2.2014,-1.0583c-0.1411,0.0565 -0.2823,0.1129 -0.4234,0.1693c-0.0141,0.0988 -0.0282,0.1976 -0.0423,0.2964c0.0141,0.0141 0.0282,0.0282 0.0423,0.0423c0.4006,0.0178 0.498,-0.029 0.6774,-0.2117c0,-0.0564 0,-0.1128 0,-0.1693c-0.0283,-0.0282 -0.0565,-0.0564 -0.0847,-0.0847c-0.0564,-0.0141 -0.1129,-0.0282 -0.1693,-0.0423zm4.4449,-0.0423c-0.6068,0.4619 -0.7982,0.7547 -1.4816,0.3386c-0.1906,0.0587 -0.1523,0.0219 -0.2117,0.2117c-0.1729,0.1037 -0.5277,0.3138 -0.6773,0.4657c0.0272,0.1538 0.017,0.1281 0.0847,0.2116c0.5159,-0.1301 0.6964,0.4343 0.8466,0.8043c-0.0369,0.2446 -0.1033,0.3137 -0.2117,0.4657c-1.5591,0.2143 -2.0297,0.4035 -3.0903,1.1429c-0.0435,0.3597 -0.0261,0.5677 0.127,0.8043c1.0508,0.2291 2.2422,-0.838 3.3443,-0.4233c0.3031,0.114 0.4881,0.5168 0.7197,0.7197c0.0282,0 0.0565,0 0.0847,0c0.0423,-0.0988 0.0847,-0.1976 0.127,-0.2964c0.1693,-1.4673 0.3387,-2.9351 0.508,-4.4025c-0.0565,-0.0141 -0.1129,-0.0282 -0.1694,-0.0423zm-6.4769,-1.4817c-0.5197,0.4872 -1.0865,0.9119 -1.4817,1.524c0.0141,0.0706 0.0282,0.1411 0.0423,0.2117c0.0141,0 0.0283,0 0.0424,0c0.4938,-0.3245 0.9878,-0.6492 1.4816,-0.9737c0.0141,-0.2257 0.0283,-0.4515 0.0424,-0.6773c-0.0424,-0.0282 -0.0847,-0.0565 -0.127,-0.0847z" class="fil0"/>
   <path id="svg_2" d="m9.478783,0.000608c1.56,-0.0355 2.1635,1.489 1.6933,2.8363c-1.9495,0.638 -2.5799,0.1136 -3.4713,1.9897c-0.1558,0.3279 -0.42,0.5588 -0.4656,1.016c0.0141,0.0282 0.0282,0.0564 0.0423,0.0846c0.0141,0 0.0282,0 0.0423,0c0.6902,-0.0988 1.3471,-0.9323 2.1167,-0.5926c0.1727,0.0993 0.6291,0.5532 0.4657,0.9313c-0.2823,0.254 -0.5645,0.508 -0.8467,0.762c-0.7718,1.1054 -1.4463,2.115 -2.032,3.4289c0.0141,0.0424 0.0282,0.0847 0.0423,0.127c0.0847,0 0.1694,0 0.254,0c0.8369,-0.308 3.4643,-0.862 2.8787,0.9313c-0.5727,1.7536 -2.5046,2.4515 -2.921,4.2756c0.0846,0 0.1693,0 0.254,0c1.5011,-0.74 6.1522,-2.6073 7.8316,-0.6773c0.5173,0.5944 0.2094,1.727 -0.0423,2.4129c-0.59,1.6081 -1.6452,4.8336 -3.1327,5.461c-1.8558,-0.7395 -4.5874,-1.3552 -6.6463,-0.508c-0.0282,-0.0423 -0.0564,-0.0847 -0.0846,-0.127c0.2969,-0.0618 1.2381,-0.3918 1.016,-0.6773c-0.3474,-0.1241 -0.5589,-0.0443 -0.762,-0.2964c0,-0.0141 0,-0.0282 0,-0.0423c0.0846,-0.0141 0.1693,-0.0282 0.254,-0.0423c-0.0283,-0.127 -0.0565,-0.254 -0.0847,-0.381c-0.1693,-0.0282 -0.3387,-0.0565 -0.508,-0.0847c0.0423,-0.0846 0.0847,-0.1693 0.127,-0.254c0.4797,-0.3527 0.9596,-0.7056 1.4393,-1.0583c0.8822,-0.4981 1.9214,-0.8622 3.0057,-1.143c0.9021,-0.2336 2.1718,-0.0691 1.651,1.1853c-0.342,0.5767 -2.3095,0.9788 -2.8787,1.4817c0,0.0141 0,0.0282 0,0.0423c0.4779,0.351 3.0574,-0.0297 3.3867,-0.2116c0.2902,-0.7117 1.6815,-3.9041 1.5663,-4.5297c0.1908,-0.853 -2.1732,-0.6596 -2.794,-0.4656c-1.8636,0.5823 -3.7838,1.2555 -5.2493,2.2859c-0.4676,0.3288 -0.6514,0.9619 -1.1007,1.27c-0.2465,-0.0044 -0.254,0.1662 -0.508,0.254c-0.2325,-0.2036 -0.6946,-0.2225 -0.8466,-0.4233c-0.5357,-0.7277 0.2746,-1.8687 0.635,-2.286c1.0518,-1.2176 2.04,-2.5821 3.175,-3.7253c0.448,-0.4513 0.878,-0.8384 1.1853,-1.4393c-0.0273,-0.1538 -0.0171,-0.1281 -0.0847,-0.2117c-1.3228,0.4954 -2.4925,1.1515 -3.7253,1.651c-0.0141,0 -0.0282,0 -0.0423,0c-0.0424,-0.0846 -0.0847,-0.1693 -0.127,-0.254c-0.4992,0.4021 -0.6594,1.7267 -0.8467,2.413c-0.2258,1.0582 -0.4516,2.1168 -0.6773,3.175c-0.0706,0.7196 -0.1412,1.4394 -0.2117,2.1589c-0.2116,0.2399 -0.4233,0.4798 -0.635,0.7197c-0.0564,0.2258 -0.1129,0.4516 -0.1693,0.6773c-0.0283,-0.0141 -0.0565,-0.0282 -0.0847,-0.0423c-0.1551,-0.4973 -0.3641,-0.9796 -0.4657,-1.5663c-0.1999,-1.1549 0.2316,-2.0056 -0.0423,-3.048c-0.2773,-1.0551 -1.3553,-3.5344 -0.9736,-4.8259c0.4085,-1.3828 2.5703,-3.1302 3.6406,-3.9792c0.4515,-0.3245 0.9032,-0.6492 1.3547,-0.9737c0.2116,-0.4515 0.4233,-0.9031 0.635,-1.3546c0.7658,-1.3867 1.5196,-2.84 2.413,-4.1063c-0.0142,-0.0565 -0.0283,-0.1129 -0.0424,-0.1694c-0.0141,0 -0.0282,0 -0.0423,0c-0.6898,0.2898 -1.9628,2.1947 -2.3707,2.8787c-0.4124,0.6916 -0.3934,1.1875 -1.016,1.6509c-1.2208,0.0552 -2.3019,-1.5622 -1.6933,-2.8786c2.9567,-0.2206 4.5931,-2.3777 6.5193,-3.7253zm-5.842,10.2869c-1.9131,1.8343 -3.3246,2.9921 -2.286,6.6039c0.0565,0 0.1129,0 0.1694,0c0.2281,-2.4822 1.8179,-4.3017 2.2436,-6.5192c-0.0423,-0.0282 -0.0846,-0.0565 -0.127,-0.0847zm2.8787,-2.286c-0.349,0.3736 -0.8283,0.6541 -0.889,1.3124c0.0282,0.0282 0.0564,0.0564 0.0847,0.0846c0.408,-0.2059 0.8183,-0.9344 1.016,-1.3546c0,-0.0141 0,-0.0282 0,-0.0424c-0.0706,0 -0.1412,0 -0.2117,0zm3.0903,11.6838c-0.5047,0.3686 -1.576,0.6258 -1.7356,1.3124c0.0282,0.014 0.0564,0.0282 0.0846,0.0423c0.5056,-0.1786 1.5156,-0.6841 1.905,-1.143c-0.0141,-0.0564 -0.0282,-0.1129 -0.0423,-0.1693c-0.0706,-0.0141 -0.1412,-0.0283 -0.2117,-0.0424z" class="fil0"/>
   <path id="svg_3" d="m48.845883,32.504008c0.9541,-0.0329 1.3899,0.1876 1.7356,0.762c-0.3007,1.0623 -1.1345,1.4172 -1.905,1.9896c-0.8752,0.6503 -1.742,1.6419 -2.159,2.7517c-0.158,0.4206 -1.0932,1.3863 -0.7196,1.9473c0.6902,-0.4255 3.9219,-2.6955 4.826,-1.778c0.1858,0.1886 0.1226,0.5899 0.2116,0.762c-0.2522,0.5388 -0.7405,0.518 -1.0583,0.9313c-0.3373,0.4386 -0.4615,0.9281 -0.889,1.27c-0.0141,0 -0.0282,0 -0.0423,0c0.0282,-0.1129 0.0564,-0.2258 0.0846,-0.3387c-0.0564,0.0283 -0.1129,0.0565 -0.1693,0.0847c-0.4578,0.2869 -1.7739,1.9992 -1.905,2.5822c0.4181,-0.1221 1.6652,-1.9177 1.9473,-2.3282c0.0283,0.0141 0.0565,0.0282 0.0847,0.0423c0,0.0142 0,0.0283 0,0.0424c-0.7193,0.7304 -1.358,1.6489 -1.905,2.5398c0,0.0424 0,0.0847 0,0.127c0.7403,0.0754 1.3538,-0.3457 2.159,-0.1693c0.0706,0.0847 0.1411,0.1693 0.2117,0.254c-0.0008,0.9054 -0.825,1.2138 -1.3124,1.651c-1.1177,1.0027 -2.0647,2.2638 -2.921,3.429c0.0424,0.0423 0.0847,0.0846 0.127,0.127c1.9002,-0.845 3.7905,-1.6067 6.1384,-1.9474c1.1416,-0.1656 2.4966,0.0717 2.7939,0.889c0.5752,1.581 -1.8125,4.3287 -2.5823,5.0377c-0.3807,0.3506 -1.2666,0.6394 -1.8203,0.7619c-1.2699,0.0283 -2.5401,0.0565 -3.81,0.0847c-0.514,0.1866 -1.8313,1.4355 -2.286,1.3547c0.0282,-0.0141 0.0564,-0.0283 0.0847,-0.0424c0.3216,-0.5475 1.231,-0.6753 1.4393,-1.3123c-0.5864,-0.133 -1.2722,-0.3638 -1.778,-0.635c0.0896,-1.3042 4.3538,-3.1955 5.1647,-1.524c-0.3051,0.3122 -0.7103,0.4417 -0.9314,0.8467c0.0274,0.2002 0.0556,0.276 0.1694,0.381c0.503,-0.3081 1.4297,-0.0403 2.1166,-0.2117c1.5097,-0.3767 2.3651,-2.3293 2.3707,-4.2333c-0.6625,-0.0945 -1.4614,0.0816 -2.0743,0.2117c-1.4333,0.3042 -2.6416,0.4666 -3.81,1.016c-1.2441,0.5849 -2.6109,1.2859 -4.1063,1.5663c-0.0283,-0.0423 -0.0565,-0.0847 -0.0847,-0.127c0.8016,-2.5693 3.5623,-4.3617 5.08,-6.3923c-0.0533,-0.1279 0.0007,-0.0506 -0.0847,-0.127c-0.73,-0.2577 -2.7222,1.2908 -3.3443,0.4234c0.5126,-1.4739 2.4214,-2.7146 2.667,-3.8946c-0.0283,-0.0282 -0.0565,-0.0564 -0.0847,-0.0846c-0.3411,0.0764 -0.3974,0.3776 -0.635,0.5503c-0.4264,0.3099 -1.1728,0.5681 -1.524,1.0583c-1.0359,1.446 -1.7617,3.7126 -2.413,5.5032c-0.3275,0.9005 -1.1114,1.8209 -1.1006,2.921c-0.0565,-0.0283 -0.113,-0.0565 -0.1694,-0.0847c0.0141,-0.1129 0.0283,-0.2258 0.0424,-0.3387c-0.2106,-0.0504 -0.2563,-0.0929 -0.381,-0.2116c0.0105,-1.1797 0.9162,-2.5046 0.3386,-3.7253c-1.246,-0.5116 -0.3348,-2.1543 0.127,-2.7517c0.7326,-0.9474 1.6766,-1.7225 2.4553,-2.6245c0.2117,-0.1552 0.4234,-0.3105 0.635,-0.4657c0.2963,-0.7054 0.5927,-1.4111 0.889,-2.1166c0.6142,-1.1772 2.5205,-4.878 3.4714,-5.4186c-0.0141,-0.0565 -0.0283,-0.1129 -0.0424,-0.1694c-0.0705,-0.0141 -0.1411,-0.0282 -0.2116,-0.0423c-0.6667,0.2584 -2.3662,1.8926 -2.667,2.4553c-0.1737,0.3248 -0.1675,0.6189 -0.4657,0.8043c-0.2853,0.1774 -0.7179,0.139 -1.1006,0.0424c-0.646,-0.488 -0.392,-1.1566 -0.2117,-1.8203c0.3024,-0.0263 0.5306,0.14 0.8043,0.0846c0.8466,-0.4938 1.6934,-0.9878 2.54,-1.4816c0.6632,-0.2963 1.3265,-0.5927 1.9897,-0.889zm-1.27,3.2596c-0.2809,0.319 -1.6804,1.514 -1.3124,2.0743c0.508,-0.6631 1.0161,-1.3265 1.524,-1.9896c-0.0141,-0.0282 -0.0282,-0.0565 -0.0423,-0.0847c-0.0564,0 -0.1129,0 -0.1693,0zm-1.0584,16.3828c-0.2508,0.1736 -0.4744,0.2519 -0.6773,0.4656c-0.0063,0.2409 -0.0144,0.2866 0.127,0.381c0.0706,0.0141 0.1411,0.0283 0.2117,0.0423c0.3275,-0.1531 0.5919,-0.3664 0.635,-0.8043c-0.0141,-0.0282 -0.0283,-0.0564 -0.0424,-0.0846c-0.0846,0 -0.1693,0 -0.254,0zm5.4187,-0.7197c-0.1429,0.1807 -0.3115,0.2486 -0.381,0.508c0.0423,0.0423 0.0847,0.0847 0.127,0.127c0.243,-0.1754 0.3293,-0.4313 0.4233,-0.635c-0.0564,0 -0.1129,0 -0.1693,0zm0.508,-0.1693c-0.185,0.2331 -0.458,0.5504 -0.508,0.889c0.1907,-0.0587 0.5812,-0.3887 0.6773,-0.5504c0.1223,-0.196 -0.0236,-0.269 -0.1693,-0.3386zm-8.89,-7.5776c-0.7595,1.5768 -1.8542,3.3364 -2.2013,5.2069c0.0564,0 0.1129,0 0.1693,0c0.3424,-1.8277 1.433,-3.5845 2.2014,-5.1223c-0.0565,-0.0282 -0.113,-0.0564 -0.1694,-0.0846zm-0.1693,-2.2012c0.0141,0.0141 0.0282,0.0282 0.0423,0.0423c-0.1111,0.1251 -0.2118,0.0736 -0.254,0.381c0.2395,-0.0446 0.382,-0.1415 0.508,-0.2963c-0.0141,-0.0424 -0.0282,-0.0847 -0.0423,-0.127c-0.0847,0 -0.1694,0 -0.254,0zm2.9633,-4.9107c-0.176,0.3737 -0.483,0.6661 -0.5503,1.143c0.3424,-0.0957 0.6473,-0.7958 0.8043,-1.016c-0.0282,-0.0423 -0.0564,-0.0846 -0.0847,-0.127c-0.0141,0 -0.0282,0 -0.0423,0c-0.0423,0 -0.0847,0 -0.127,0z" class="fil0"/>
   <path id="svg_4" d="m70.141883,0.339308c0.2401,0.0495 1.4391,0.4407 1.5664,0.5503c0.0864,0.0762 0.0299,0.0006 0.0846,0.127c-0.2871,0.7074 -0.7368,3.7018 -0.3386,4.572c0.5325,0.2383 0.3677,0.6845 0.5926,1.1006c-0.1767,0.2901 -0.5045,0.4077 -0.6773,0.6773c-0.5144,0.8031 -0.4106,1.811 -0.5927,3.0057c-0.066,0.4334 -0.1871,1.4748 0,1.6932c0.5645,-0.0282 1.129,-0.0564 1.6934,-0.0847c1.8728,-0.2052 3.4443,0.304 4.1486,1.4394c-0.268,0.5361 -0.5362,1.0725 -0.8043,1.6086c-0.837,1.8411 -1.7268,3.5816 -2.794,5.1646c-0.3521,0.5223 -0.8016,1.3162 -1.4817,1.4817c-1.2513,0.3044 -2.8072,-1.0819 -3.9369,-1.143c-0.4434,0.2358 -0.7553,0.855 -1.1854,1.016c-0.5503,0 -1.1007,0 -1.651,0c0,-0.0141 0,-0.0283 0,-0.0424c0.6366,-0.5452 1.2542,-0.9017 1.6934,-1.6509c-0.0486,-0.4613 -0.3472,-0.7909 -0.6774,-0.9737c-0.0423,0.0141 -0.0846,0.0282 -0.127,0.0423c-0.0872,0.6149 -0.697,0.605 -1.0583,0.9314c-0.1129,-0.0565 -0.2258,-0.1129 -0.3387,-0.1694c-0.0141,0.0706 -0.0282,0.1411 -0.0423,0.2117c-0.2329,-0.0542 -0.3136,-0.1082 -0.3387,-0.381c0.2907,-0.6945 2.523,-3.3173 2.2437,-3.7676c-0.5503,0.2262 -2.7114,1.7896 -3.1327,1.1853c-0.5146,-0.8958 1.6188,-3.4545 2.159,-4.1063c0.2448,-0.2953 0.7734,-0.5288 0.889,-0.9313c0.3118,-1.0849 -0.3211,-2.2084 -0.4233,-3.1326c-0.0523,-0.473 0.2204,-0.7469 0.2963,-1.1006c0.3042,-1.4161 0.2491,-2.9017 0.8044,-4.064c0.2015,-0.4217 -0.08,-1.2259 0.1693,-1.4816c0.2648,-0.0711 0.4706,0.1639 0.8043,0.2116c0.9134,-0.598 1.4351,-1.4472 2.4553,-1.9896zm-0.5926,2.3706c-0.9677,0.588 -1.7483,0.8772 -1.9897,2.2013c0,0.381 0,0.7621 0,1.143c-0.0706,0.4488 -0.3497,0.8876 -0.254,1.3123c0.0142,0 0.0283,0 0.0424,0c0.6208,-0.3809 1.2418,-0.762 1.8626,-1.1429c0.1386,-1.0149 0.7404,-2.6293 0.5927,-3.5137c-0.0847,0 -0.1694,0 -0.254,0zm0.8043,11.3875c-1.39,0.9752 -3.6827,2.0254 -3.8946,4.1063c0.2024,0.2908 0.2944,0.4734 0.635,0.635c0.0705,-0.0141 0.1411,-0.0283 0.2116,-0.0424c0.8385,-1.7367 2.2998,-2.9796 3.302,-4.6143c-0.0141,-0.0282 -0.0282,-0.0564 -0.0423,-0.0846c-0.0705,0 -0.1411,0 -0.2117,0zm-1.1853,-0.0424c-0.4066,0.2822 -0.7962,0.365 -0.8467,1.016c0.0423,0.0141 0.0847,0.0283 0.127,0.0424c0.3246,-0.2822 0.6492,-0.5645 0.9737,-0.8467c0,-0.0564 0,-0.1129 0,-0.1693c-0.0282,0 -0.0565,0 -0.0847,0c-0.0564,-0.0141 -0.1128,-0.0283 -0.1693,-0.0424zm3.4713,-0.7196c-0.254,0.0282 -0.508,0.0564 -0.762,0.0847c-0.1881,1.033 -1.93,3.4757 -2.54,4.4026c-0.3166,0.4811 -0.8421,0.9277 -0.889,1.651c0.2203,0.3303 0.8058,0.4995 1.2277,0.381c-0.0141,-0.0565 -0.0282,-0.1129 -0.0423,-0.1694c0.3343,0.0591 0.9191,0.2502 1.3123,0.0847c1.0142,-0.4269 2.033,-3.164 2.5823,-4.2333c0.2768,-0.5388 0.991,-1.4329 0.635,-2.159c-0.5079,-0.0141 -1.016,-0.0282 -1.524,-0.0423zm-4.699,-1.6933c-0.7372,0.8538 -1.4977,1.669 -2.2436,2.5399c0.0141,0.0706 0.0282,0.1412 0.0423,0.2117c0.3316,-0.1292 3.2261,-1.698 3.2597,-1.8203c-0.254,-0.3104 -0.5081,-0.6209 -0.762,-0.9313c-0.0988,0 -0.1976,0 -0.2964,0zm0.8467,-1.1006c-0.127,0.2226 -0.1273,0.3277 0,0.5503c0.0705,-0.0141 0.1411,-0.0282 0.2117,-0.0423c-0.0424,-0.1693 -0.0847,-0.3387 -0.127,-0.508c-0.0282,0 -0.0565,0 -0.0847,0zm1.4816,-0.254c-0.0327,0.7534 -0.2449,1.8879 0.0847,1.9472c0,-0.0282 0,-0.0564 0,-0.0846c0.0282,-0.6208 0.0565,-1.2417 0.0847,-1.8626c-0.0564,0 -0.1129,0 -0.1694,0zm-1.5663,-2.286c-0.3974,0.4513 -0.9051,0.8142 -1.3123,1.27c0.0141,0.0706 0.0282,0.1412 0.0423,0.2117c0.0423,0.0706 0.0847,0.1411 0.127,0.2117c0.0988,-0.0141 0.1976,-0.0282 0.2963,-0.0424c0.4323,-0.1825 1.2886,-1.0695 1.0161,-1.651c-0.0142,0 -0.0282,0 -0.0424,0c-0.0423,0 -0.0847,0 -0.127,0z" class="fil0"/>
   <path id="svg_5" d="m63.112883,35.256008c0.3998,0.0013 0.7288,0.1399 0.889,0.381c0.1056,0.1745 0.0268,0.4088 0.0847,0.6773c0.0603,0.2793 0.3167,0.3855 0.381,0.5927c-0.1129,0.5362 -0.2258,1.0725 -0.3387,1.6087c-0.1133,0.3719 -0.616,1.1476 -0.381,1.5239c1.1392,-0.7139 2.4573,-3.2777 4.2334,-2.8786c0.6268,0.4752 0.388,1.2683 0.508,2.286c0.1506,1.2779 0.1047,3.7535 -0.1694,5.1222c-0.1344,0.6712 -0.7463,1.628 -0.5926,2.3283c0.0141,0 0.0282,0 0.0423,0c0.9312,-0.3246 1.8627,-0.6491 2.794,-0.9737c1.5903,-0.4026 3.952,0.1186 3.5136,1.8203c-0.1693,0.6491 -0.3386,1.2983 -0.5079,1.9473c-0.1662,0.5819 0.008,1.8895 -0.381,2.286c-0.917,0.3605 -0.4416,0.2146 -0.9314,0.889c-0.518,-0.1883 -1.5837,-0.5336 -2.3283,-0.3386c-0.753,0.1971 -1.7325,0.8219 -2.5823,0.127c0.0846,-0.0141 0.1693,-0.0283 0.254,-0.0424c-0.0424,-0.1129 -0.0847,-0.2258 -0.127,-0.3386c0.0141,-0.0283 0.0282,-0.0565 0.0423,-0.0847c0.7834,0.2331 4.3651,-0.5988 4.5296,-0.8467c0.295,-0.6393 0.72,-3.3529 0.2964,-4.0639c-2.3604,-0.3107 -6.2338,1.9275 -7.9163,2.7939c-0.5412,0.2787 -1.9672,1.5211 -2.667,1.27c-0.1046,-0.0661 -0.1323,-0.1272 -0.2117,-0.2116c-0.021,-0.9167 0.2738,-1.1475 0.508,-1.6933c0.254,-0.6773 0.508,-1.3548 0.762,-2.032c0.4092,-0.7901 0.8185,-1.5805 1.2277,-2.3707c0.3623,-0.9115 0.3548,-2.1872 0.8466,-2.9632c0.2703,-0.0619 0.7346,-0.0725 0.6774,0.2117c-0.127,0.7901 -0.254,1.5804 -0.381,2.3705c0.0866,0.4563 0.3302,0.7866 0.508,1.143c0.0564,0 0.1129,0 0.1693,0c0.0282,-0.0282 0.0564,-0.0564 0.0847,-0.0846c0.2051,-2.183 0.7869,-3.9655 0.8043,-6.2229c-0.0423,0 -0.0847,0 -0.127,0c-0.522,0.4374 -1.0443,0.8749 -1.5663,1.3123c0.0705,-0.0705 0.1411,-0.1411 0.2116,-0.2116c0.3253,-0.5833 1.1045,-0.8406 1.4817,-1.4394c0,-0.0281 0,-0.0564 0,-0.0846c-0.0282,-0.0141 -0.0564,-0.0282 -0.0847,-0.0424c-0.3295,0.102 -1.8215,1.4899 -1.905,1.8204c0.0706,0.0141 0.1411,0.0282 0.2117,0.0423c0.0141,-0.0282 0.0282,-0.0564 0.0423,-0.0847c-0.0179,0.0393 0.034,0.0286 -0.0423,0.0847c-0.2822,0.3245 -0.5645,0.6492 -0.8467,0.9737c-0.3084,0.1333 -0.4113,-0.0497 -0.6773,0.127c-0.139,0.7062 -0.629,1.1661 -0.8043,1.9048c-0.1411,1.4533 -0.2823,2.907 -0.4233,4.3603c-0.2117,0.1693 -0.4234,0.3387 -0.635,0.508c-0.0706,-0.0564 -0.1412,-0.1129 -0.2117,-0.1693c-0.0564,0.0564 -0.1129,0.1129 -0.1693,0.1693c-2.1609,-0.8968 -0.3335,-7.1156 -0.254,-8.5088c0.1444,-0.1525 0.3044,-0.1477 0.381,-0.381c-0.384,-0.9184 1.2038,-4.1713 1.7779,-4.6143zm7.112,3.8946c0.0706,0.0142 0.1411,0.0283 0.2117,0.0424c-0.0706,-0.0141 -0.1411,-0.0282 -0.2117,-0.0424zm1.016,-0.3809c0.3437,0.0046 0.5307,0.1135 0.762,0.1693c1.0676,0.2577 2.0299,-0.4831 2.7517,0.254c0.0252,0.6667 -0.1185,1.2657 -0.4657,1.5663c-0.0141,0 -0.0282,0 -0.0423,0c0,-0.0847 0,-0.1693 0,-0.254c-0.0565,0 -0.1129,0 -0.1694,0c-1.0943,0.6834 -2.4278,1.8757 -3.3019,0.0423c-0.1822,-0.382 -0.0001,-1.0348 -0.127,-1.3123c0.2321,-0.0649 0.4306,-0.3133 0.5926,-0.4656zm-6.1806,6.3921c0.0633,0.1916 0.0735,0.2966 0.254,0.381c0,-0.0423 0,-0.0846 0,-0.127c-0.0776,-0.1341 -0.0998,-0.187 -0.254,-0.254zm-0.4234,0.889c-0.5586,0.8748 -0.8365,2.002 -1.1853,3.048c0.0141,0.0282 0.0282,0.0564 0.0423,0.0847c0.9267,-0.1175 1.9613,-1.0406 2.5824,-1.5664c0,-0.0846 0,-0.1693 0,-0.254c-0.43,-0.3432 -0.9386,-1.1186 -1.4394,-1.3123z" class="fil0"/>
   <path id="svg_6" d="m53.377883,3.302608c1.6242,-0.0034 1.2728,2.812 1.0583,4.3603c-0.1515,1.0939 -0.0422,2.5612 -0.0423,3.8522c-0.0001,1.8691 -0.1315,3.6116 0.127,5.2916c0.0141,0.9736 0.0282,1.9474 0.0423,2.921c0.0847,0.1129 0.1694,0.2257 0.254,0.3386c0.1709,0.3922 0.1015,1.2347 0.0424,1.6933c-0.4181,0.1666 -0.7092,0.3032 -0.9314,0.6774c-0.6032,-0.0232 -0.8122,-0.4346 -1.3546,-0.5504c-1.1973,-0.2556 -2.3739,0.3177 -2.921,-0.5926c0,-0.0423 0,-0.0847 0,-0.127c0.86,-0.0925 3.366,-0.1509 3.683,-0.635c0.1218,-0.1861 -0.2474,-2.5248 -0.254,-3.175c-0.0314,-3.0893 -0.002,-6.1716 0,-8.9321c0.0007,-0.9531 0.3741,-3.6134 -0.1694,-3.937c-0.0141,-0.0141 -0.0282,-0.0282 -0.0423,-0.0423c-0.1129,0.0564 -0.2258,0.1129 -0.3387,0.1693c0.1007,-0.6334 0.3962,-1.0197 0.8467,-1.3123zm-8.89,0.5926c0.6205,-0.0261 0.9754,0.04 1.2277,0.381c-0.0821,0.5226 -0.7087,2.5296 -0.508,2.8363c0.6678,-0.5436 1.9671,-3.0186 3.3866,-2.4553c0.5215,0.2772 0.2234,1.1288 0.3387,1.8627c0.0847,1.8625 0.1694,3.7255 0.254,5.5878c0.0141,0 0.0283,0 0.0423,0c0.0424,-0.0141 0.0847,-0.0282 0.127,-0.0423c0.2462,-0.7375 0.755,-1.4168 1.143,-2.0319c0.331,-0.5244 0.2733,-0.9552 0.6774,-1.4393c0.1834,0 0.3669,0 0.5503,0c0.6395,0.2971 0.2487,3.104 0.2963,4.1485c0.2019,-0.0672 0.1639,-0.1301 0.3387,-0.2116c-0.1375,0.6681 -0.045,1.7156 -0.254,2.4976c-0.455,0.0274 -0.368,0.2272 -0.762,0.2963c-0.0846,-0.0564 -0.1693,-0.1129 -0.254,-0.1693c-0.1171,-0.7335 -0.211,-1.6115 -0.3386,-2.4553c-0.0142,-0.7901 -0.0282,-1.5804 -0.0424,-2.3705c-0.0423,0.014 -0.0847,0.0282 -0.127,0.0423c-0.6378,0.9457 -1.2709,1.8367 -1.524,3.1749c-0.3168,1.6754 0.7744,2.4188 0.0424,3.5983c-0.9216,0.2384 -2.1107,-0.0015 -3.175,0.2116c-0.8338,0.167 -1.5254,0.7953 -2.3707,0.7197c-0.2552,-0.9052 0.0668,-1.6776 0.1693,-2.4977c-0.8197,-0.5998 -0.6526,-1.5483 -0.4233,-2.4553c-0.3653,-0.4126 -0.1318,-1.3064 -0.1693,-1.9473c-0.0948,-1.6199 0.642,-6.5642 1.3546,-7.2812zm1.143,11.6415c0.8101,-0.0114 2.2591,0.0696 2.8787,-0.254c0,-0.2116 0,-0.4233 0,-0.635c-1.1691,0.2501 -1.1706,0.3328 -1.5663,-1.016c-0.2387,-0.0204 -0.2477,-0.0147 -0.4234,0.0847c-0.2457,0.6191 -0.8194,1.042 -0.889,1.8203zm-1.1006,-6.0958c0.0846,-0.0141 0.1693,-0.0282 0.254,-0.0424c-0.0141,-0.1411 -0.0282,-0.2822 -0.0424,-0.4233c-0.0141,0 -0.0282,0 -0.0423,0c-0.0564,0.0282 -0.1129,0.0565 -0.1693,0.0847c0,0.1269 0,0.254 0,0.381zm3.0903,-2.5824c-1.0735,1.0336 -3.0286,3.474 -2.5823,5.5032c0.0826,0.3756 -0.1044,0.6629 0.0423,0.9314c0.0565,-0.0424 0.1129,-0.0847 0.1693,-0.127c0.0594,-0.1511 0.3051,-1.2224 0.3387,-1.27c0.0741,0.0926 0.0742,0.1137 0.0847,0.2963c0.162,-0.0559 0.088,0.0001 0.1693,-0.127c0.1158,-0.2604 -0.0325,-0.5004 -0.127,-0.6773c0.2355,0.0757 0.1916,0.1604 0.4657,0.2116c0.0282,-0.0141 0.0564,-0.0282 0.0846,-0.0423c0.0142,-0.1552 0.0283,-0.3104 0.0424,-0.4656c0.3197,-0.0418 0.9533,0.0445 1.2276,0.1693c0.0565,0.1129 0.1129,0.2257 0.1694,0.3386c0.0423,-0.0282 0.0846,-0.0564 0.127,-0.0846c0,-0.0283 0,-0.0565 0,-0.0847c0.1967,-0.7204 0.1698,-4.0291 -0.0847,-4.5719c-0.0423,0 -0.0847,0 -0.127,0z" class="fil0"/>
   <path id="svg_7" d="m32.336383,35.594008c0.7943,-0.0408 1.9174,0.4148 1.651,1.1853c-0.1278,0.6906 -1.0808,0.9631 -1.4393,1.4817c-1.1742,1.6982 -2.3247,3.3319 -3.5137,4.9952c-0.4392,0.6144 -1.3378,1.3457 -1.5663,2.0743c-0.2815,0.8979 0.6134,3.4887 0.9737,4.0216c0.0705,0 0.1411,0 0.2116,0c0.1412,-0.1834 0.2823,-0.3669 0.4234,-0.5503c0.0282,0 0.0564,0 0.0846,0c0,-0.0141 0,-0.0283 0,-0.0424c0.0424,-0.0705 0.0847,-0.1411 0.127,-0.2116c0.1125,0.0549 0.0029,0.1603 -0.0846,0.254c-0.0141,0 -0.0282,0 -0.0424,0c-0.1997,1.0947 -0.3808,2.3054 -1.1853,2.8786c-1.2812,-0.303 -1.7726,-2.5843 -2.1589,-3.8946c-0.0705,0.0141 -0.1411,0.0282 -0.2117,0.0423c-0.3386,0.5503 -0.6773,1.1007 -1.016,1.651c-0.8553,1.3058 -1.6439,2.5904 -2.54,3.81c-0.0423,-0.0283 -0.0846,-0.0565 -0.127,-0.0847c-0.0705,-0.0847 -0.1411,-0.1694 -0.2116,-0.254c-0.2598,0.039 -0.2762,0.122 -0.4657,0.2117c0.0928,-0.434 -0.0849,-0.8946 0,-1.2277c0.4515,-0.6773 0.9032,-1.3547 1.3547,-2.032c0.9003,-1.3258 1.6134,-2.8839 2.7093,-4.0216c-0.0734,-0.5759 -0.3298,-1.1806 -0.1693,-1.8203c0.3297,-0.4746 1.0098,-0.441 1.524,-0.1694c0.7477,-1.1427 1.4957,-2.2859 2.2435,-3.4288c0.5503,-0.635 1.1007,-1.2701 1.651,-1.905c0,-0.0423 0,-0.0847 0,-0.127c-0.1128,0 -0.2258,0 -0.3386,0c-0.8582,0.328 -1.6927,0.5522 -2.4554,0.9736c-0.8311,0.4593 -1.4489,1.2564 -2.5399,1.4394c-1.2657,0.2123 -2.5051,-1.5856 -1.9896,-2.667c0.0282,-0.0141 0.0564,-0.0282 0.0846,-0.0423c0.4657,0.0705 0.9314,0.1411 1.397,0.2116c1.5321,-0.2342 3.0303,-1.2184 4.4026,-1.778c0.8183,-0.2821 1.637,-0.5644 2.4553,-0.8466c0.254,-0.0423 0.508,-0.0847 0.762,-0.127zm-2.9633,12.8691c0.0141,0.0282 0.0282,0.0564 0.0423,0.0847c-0.0141,-0.0283 -0.0282,-0.0565 -0.0423,-0.0847zm2.7517,-1.8627c1.2966,-0.0424 3.1613,1.1912 2.5823,2.413c-0.0589,0.0814 -0.0043,0.0254 -0.0847,0.0847c-0.4374,0.0846 -0.8749,0.1693 -1.3123,0.254c-0.2877,0.1926 -0.4396,0.5297 -0.762,0.7196c-0.0282,-0.0141 -0.0565,-0.0282 -0.0847,-0.0423c0.2775,-0.9224 -0.2103,-2.5021 -0.8466,-2.667c-0.2681,0.0141 -0.5363,0.0283 -0.8044,0.0424c0.0564,-0.0706 0.1129,-0.1411 0.1694,-0.2117c0.35,-0.1462 0.7917,-0.3781 1.143,-0.5927z" class="fil0"/>
   <path id="svg_8" d="m30.052683,4.360908c1.0824,-0.0203 2.4338,1.0387 1.6934,2.159c-0.6914,0.6067 -1.383,1.2136 -2.0744,1.8203c-0.4374,0.0423 -0.8749,0.0847 -1.3123,0.127c-0.776,0.649 -1.5523,1.2983 -2.3283,1.9473c-0.0141,0 -0.0282,0 -0.0423,0c-0.0283,0.0423 -0.0565,0.0847 -0.0847,0.127c-0.0282,-0.0141 -0.0565,-0.0282 -0.0847,-0.0423c0,-0.0141 0,-0.0283 0,-0.0424c0.0141,-0.0141 0.0282,-0.0282 0.0424,-0.0423c0.0423,0 0.0846,0 0.127,0c0.3576,-1.0019 1.8589,-1.3486 2.3706,-2.2436c-0.1303,-0.7318 -0.9245,-1.0976 -1.143,-1.778c-0.5596,-1.7432 1.8848,-1.5862 2.8363,-2.032zm-4.2756,6.1383c0.0282,0.0282 0.0564,0.0564 0.0847,0.0846c-0.0814,-0.0589 -0.0254,-0.0042 -0.0847,-0.0846zm-0.3387,1.0159c1.7056,0.1096 3.5592,-1.9386 5.0377,-2.4976c1.1481,-0.434 1.9295,1.1707 1.5663,2.1167c-0.4033,0.1015 -0.5536,0.1949 -0.6773,0.5925c-1.1554,0.0392 -3.1932,2.9308 -3.937,3.7253c-0.4438,0.4741 -0.9959,0.4907 -1.3123,1.1007c0.0141,0.0423 0.0282,0.0847 0.0423,0.127c1.9753,0.1975 3.9513,0.3951 5.9266,0.5927c0.9657,0.1765 2.061,-0.0408 2.9634,0.1693c0.58,0.135 2.2654,0.3817 2.4553,0.8043c-0.1693,0 -0.3387,0 -0.508,0c0.0766,0.3006 -0.0286,1.0554 -0.1693,1.3123c-1.3889,0.0053 -2.7974,-0.463 -4.318,-0.254c-0.6948,0.0955 -1.4355,0.5752 -2.413,0.381c-0.7496,-0.1488 -1.4863,-0.5113 -2.3283,-0.6773c-0.6242,-0.123 -2.6985,0.0957 -2.8787,-0.1693c0.6067,-0.0141 1.2136,-0.0283 1.8203,-0.0424c0,-0.0282 0,-0.0564 0,-0.0846c-0.0141,-0.0283 -0.0282,-0.0565 -0.0423,-0.0847c-2.0061,-0.0348 -2.831,0.0547 -4.0217,0.762c-0.2822,-0.0706 -0.5645,-0.1411 -0.8466,-0.2117c-1.1107,-1.6956 2.4505,-3.2384 3.048,-4.3603c-0.0424,-0.0423 -0.0847,-0.0846 -0.127,-0.127c-0.254,0.0141 -0.5081,0.0283 -0.762,0.0424c-0.4282,-0.5084 -1.2373,-2.0434 -0.381,-2.667c0.3809,-0.1552 0.762,-0.3104 1.143,-0.4657c0.4938,-0.2958 0.6362,-0.7003 1.0583,-1.0159c-0.1619,0.4701 -0.3289,0.2993 -0.3387,0.9313z" class="fil0"/>
   <path id="svg_9" d="m0.419483,30.480008c0.0282,0 0.0565,0 0.0847,0c-0.059,0.0814 -0.0043,0.0254 -0.0847,0.0847c0,-0.0282 0,-0.0564 0,-0.0847z" class="fil0"/>
   <path id="svg_10" d="m0.119483,30.180008c0.0282,0 0.0565,0 0.0847,0c-0.059,0.0814 -0.0043,0.0254 -0.0847,0.0847c0,-0.0282 0,-0.0564 0,-0.0847z" class="fil1"/>
  </g>
 </g>
</svg>